<svg xmlns="http://www.w3.org/2000/svg" xmlns:xlink="http://www.w3.org/1999/xlink" version="1.1" x="0px" y="0px" viewBox="127.2 0 372.7 499.9" enable-background="new 127.2 0 372.7 499.9" xml:space="preserve" style="fill: rgb(0, 0, 0);" original_string_length="8424" role="img" aria-label="Music Microphone Icon" width="372.7"  height="499.9" >
<g id="__id19_sbo2gw4y5e">
	<path d="M480.5,99.4c0.7,3.6,1.3,7.2,1.6,10.9c-7.2-1.1-14.3-2.2-21.3-3.1c-1-14.2-2.5-28.3-5.1-42.1   c3.9,0.4,7.8,0.9,11.7,1.4C473.6,76.5,478.1,87.6,480.5,99.4z" style="" fill="#ECF791"></path>
	<path d="M444.4,158.3c-12-1.4-24-2.1-36-2.5c-2.7-0.1-5.3-0.2-8-0.3c-0.1-1.7-0.2-3.4-0.3-5.1   c-0.5-10.1-1.3-20.3-2.3-30.5c15.1,0.2,30.6,1.3,46.4,2.9C444.6,134.6,444.8,146.4,444.4,158.3z" style="" fill="#ECF791"></path>
	<path d="M382.9,223c-1,0-2.1,0.1-3.1,0.1c-11,0-21.5-1.9-31.6-5.1c2.1-10.3,2.5-25.1,1.5-42.2   c11.3-1.3,22.6-2.2,34-2.5C383.9,189.8,383.8,206.4,382.9,223z" style="" fill="#ECF791"></path>
	<path d="M280.2,145.6c-0.4-1.5-0.8-3-1.1-4.5c-0.4-2.3-0.7-4.6-1-6.9c2.9-0.7,5.8-1.5,8.7-2.2   c12.6-3.1,25.3-5.5,38.1-7.4c2.6,12.4,4.5,24.8,5.9,36.3c-13.8,2.2-27.4,5.1-40.9,8.8C285.6,162.1,282.4,154.1,280.2,145.6z" style="" fill="#ECF791"></path>
	<path d="M443.2,105.3c-16.3-1.6-32.1-2.6-47.6-2.8c-1.8-13.6-4-27-6.8-40.2c16.4-0.4,32.7,0,48.7,1.2   C440.4,77.1,442.2,91,443.2,105.3z" style="" fill="#ECF791"></path>
	<path d="M381.9,138.6c0.4,5.7,0.8,11.5,1.1,17.3c-2,0.1-4,0.2-6,0.3c-9.7,0.4-19.3,1.1-28.9,2.3   c-0.9-7.6-2.1-15.5-3.5-23.5c-0.7-4.2-1.5-8.4-2.3-12.7c4.3-0.4,8.7-0.7,13.1-1.1c8.2-0.6,16.5-1.1,24.9-1.3   C380.9,126.1,381.4,132.3,381.9,138.6z" style="" fill="#ECF791"></path>
	<path d="M378,102.5c-13.5,0.3-26.8,1.3-39.9,2.7c-3.2-12.4-7-24.4-11.4-35.3c-0.3-0.8-0.7-1.5-1-2.3   c15.2-2.2,30.3-3.7,45.4-4.6C373.9,75.6,376.1,88.9,378,102.5z" style="" fill="#ECF791"></path>
	<path d="M332.2,178.2c0.8,13.5,0.6,24.9-0.5,32.7c-12.2-6.5-22.9-15.4-31.6-26C310.8,182.3,321.4,180,332.2,178.2z" style="" fill="#ECF791"></path>
	<path d="M379.9,17.4c17.4,0,34.1,4.5,48.7,12.4c1.8,5.2,3.4,10.4,4.9,15.8c-16-1-32.2-1.2-48.5-0.7   c-2.4-9.4-5.1-18.6-8.1-27.4C377.9,17.5,378.9,17.4,379.9,17.4z" style="" fill="#ECF791"></path>
	<path d="M359,19.5c0.1,0,0.1,0,0.1,0c2.9,8.3,5.5,17,8,26.3c-16.3,1-32.7,2.8-49.1,5.4c-1.7-3.1-3.4-6.1-5.2-8.9   C325.6,31.2,341.4,23.2,359,19.5z" style="" fill="#ECF791"></path>
	<path d="M308.1,70.5c0.8,1.9,1.7,3.8,2.5,5.9c2.6,6.5,4.9,13.3,7,20.4c1.1,3.6,2.2,7.2,3.2,10.8   c-5.4,0.8-10.7,1.8-16,2.8c-2.1,0.4-4.2,0.7-6.3,1.1c-7.2,1.4-14.3,3.1-21.5,4.9c0.1-1.9,0.4-3.8,0.5-5.7   c1.2-12.7,4.6-25,10.2-36.2C294.6,73.1,301.3,71.7,308.1,70.5z" style="" fill="#ECF791"></path>
	<path d="M400.6,221c-0.1,0-0.1,0-0.2,0c0.1-1.3,0.1-2.6,0.1-4c0.6-13.9,0.7-28.7,0.4-44.1c0.6,0,1.3,0.1,1.9,0.1   c10.1,0.1,20.4,0.8,30.5,1.7c3.4,0.3,6.9,0.5,10.4,1c-0.4,8.7-0.9,17.4-1.5,26.1c-4,3.1-8.2,5.7-12.5,8.1   C420.8,215,411,218.8,400.6,221z" style="" fill="#ECF791"></path>
	<path d="M460.9,183.5c0.1-1.7,0.1-3.5,0.2-5.2c1,0.1,2.1,0.4,3.2,0.6C463.1,180.4,462,182,460.9,183.5z" style="" fill="#ECF791"></path>
	<path d="M473.4,162.7c-3.9-0.7-7.8-1.4-11.6-2c0.3-11.9,0.4-23.9,0-35.7c6.8,0.9,13.6,1.9,20.7,3.1   C481.4,140,478.4,151.7,473.4,162.7z" style="" fill="#ECF791"></path>
</g>
<g id="__id20_sbo2gw4y5e">
	<path d="M297.1,245.9c24.8,16.2,40.3,36.9,41,43.5l-19.3,22.4c-7.1-13.1-21.6-27.3-38-38   c-13.6-8.9-28.6-16-41.1-19.5c-3.7-1-7.1-1.7-10.2-2.2l13.9-29.1C249.1,222.1,270.4,228.4,297.1,245.9z" style="" fill="#446A87"></path>
	<path d="M208.9,433.7c-0.5,0.7-2.5,1.6-5.8,1.6c-7.1,0-16.5-3.4-25.2-9c-7.5-4.8-13.6-11-17.1-16.8   c-2.7-4.6-2.8-7.6-2.2-8.5c0.5-0.7,2.5-1.6,5.8-1.6c1,0,2,0.2,3,0.3c6.6,0.7,14.6,3.8,22.1,8.7c8.8,5.7,14.2,11.9,17,16.8   C209,429.2,209.6,432.5,208.9,433.7z" style="" fill="#446A87"></path>
	<path d="M224.1,421.4c-4-9.6-12.7-19.6-25-27.7c-10.5-6.9-21.8-11-31.7-11.7l53.8-112.7c5.1-1.6,25.6,3.2,49.9,19.1   c25,16.3,34.9,33.5,34.8,38.2L224.1,421.4z" style="" fill="#446A87"></path>
	<path d="M350.8,274.8c-1.9-3.3-4.2-6.7-7.1-10.4c-9.2-11.7-22.7-23.8-37-33c-7.2-4.7-34.4-21.8-55.3-25.2l18.3-38.2   c2.8,6.3,6,12.3,9.7,18c0.9,1.4,1.9,2.8,2.8,4.2c22.1,30.8,58.1,50.5,97.7,50.5c0.2,0,0.4,0,0.6,0L350.8,274.8z" style="" fill="#446A87"></path>
</g>
<g id="__id21_sbo2gw4y5e">
	<path d="M499.8,113.3c-0.4-5.8-1-11.6-2.2-17.4c-1.9-9.1-4.8-17.7-8.6-25.8c-3.2-6.9-7-13.5-11.4-19.6   c-9.3-13-21.2-24-34.7-32.4c-5.8-3.6-11.9-6.7-18.2-9.2c-13.9-5.7-29-8.9-44.7-8.9c-3.1,0-6.3,0.2-9.4,0.4c-5.1,0.4-10.1,1-15.1,2   c-0.9,0.1-1.8,0.4-2.7,0.7c-18.9,4.3-36.2,13-50.7,25.2c-4.4,3.7-8.5,7.8-12.3,12.2c-3.7,4.2-7.3,8.7-10.5,13.6   c-1.1,1.6-2,3.4-3.1,5.1c-3.9,6.5-7,13.3-9.5,20.3c-4.8,13.3-7.4,27.4-7.2,41.6c0.1,5.9,0.7,11.8,1.6,17.7c0.2,1.6,0.4,3.2,0.7,4.8   l-33.2,69.6c-0.1,0.3-0.4,0.7-0.4,1l-21.8,46c-0.1,0.1-0.1,0.4-0.2,0.5l-59.7,125.1c-1,1.6-1.6,3.4-2,5.1c-0.1,0.1-0.2,0.2-0.4,0.4   c-4.7,7.2-4.1,16.8,1.8,26.8c3.4,6,8.6,11.8,14.9,17l-31.8,48.5c-3.2,4.8-1.8,11.4,3.1,14.6c1.8,1.2,3.8,1.7,5.7,1.7   c3.4,0,6.8-1.7,8.8-4.8l31.9-48.8c8.5,4,17.1,6.3,24.5,6.3c6.3,0,11.6-1.7,15.6-4.6c4.7-0.8,8.9-3.4,11.8-7.3l175.4-203.1   c30.7-6.8,57.1-24.9,74.4-51.2c0.8-1.3,1.6-2.7,2.3-4c3.1-5.2,6-10.5,8.3-16c4.7-11.3,7.7-23.2,8.7-35.3   C500.1,125.2,500,119.3,499.8,113.3z M480.5,99.4c0.7,3.6,1.3,7.2,1.6,10.9c-7.2-1.1-14.3-2.2-21.3-3.1c-1-14.2-2.5-28.3-5.1-42.1   c3.9,0.4,7.8,0.9,11.7,1.4C473.6,76.5,478.1,87.6,480.5,99.4z M444.4,158.3c-12-1.4-24-2.1-36-2.5c-2.7-0.1-5.3-0.2-8-0.3   c-0.1-1.7-0.2-3.4-0.3-5.1c-0.5-10.1-1.3-20.3-2.3-30.5c15.1,0.2,30.6,1.3,46.4,2.9C444.6,134.6,444.8,146.4,444.4,158.3z    M382.9,223c-1,0-2.1,0.1-3.1,0.1c-11,0-21.5-1.9-31.6-5.1c2.1-10.3,2.5-25.1,1.5-42.2c11.3-1.3,22.6-2.2,34-2.5   C383.9,189.8,383.8,206.4,382.9,223z M280.2,145.6c-0.4-1.5-0.8-3-1.1-4.5c-0.4-2.3-0.7-4.6-1-6.9c2.9-0.7,5.8-1.5,8.7-2.2   c12.6-3.1,25.3-5.5,38.1-7.4c2.6,12.4,4.5,24.8,5.9,36.3c-13.8,2.2-27.4,5.1-40.9,8.8C285.6,162.1,282.4,154.1,280.2,145.6z    M443.2,105.3c-16.3-1.6-32.1-2.6-47.6-2.8c-1.8-13.6-4-27-6.8-40.2c16.4-0.4,32.7,0,48.7,1.2C440.4,77.1,442.2,91,443.2,105.3z    M381.9,138.6c0.4,5.7,0.8,11.5,1.1,17.3c-2,0.1-4,0.2-6,0.3c-9.7,0.4-19.3,1.1-28.9,2.3c-0.9-7.6-2.1-15.5-3.5-23.5   c-0.7-4.2-1.5-8.4-2.3-12.7c4.3-0.4,8.7-0.7,13.1-1.1c8.2-0.6,16.5-1.1,24.9-1.3C380.9,126.1,381.4,132.3,381.9,138.6z M378,102.5   c-13.5,0.3-26.8,1.3-39.9,2.7c-3.2-12.4-7-24.4-11.4-35.3c-0.3-0.8-0.7-1.5-1-2.3c15.2-2.2,30.3-3.7,45.4-4.6   C373.9,75.6,376.1,88.9,378,102.5z M332.2,178.2c0.8,13.5,0.6,24.9-0.5,32.7c-12.2-6.5-22.9-15.4-31.6-26   C310.8,182.3,321.4,180,332.2,178.2z M452,47.2L452,47.2c-0.1-0.1-0.1-0.1-0.1-0.1C451.9,47.1,451.9,47.1,452,47.2z M379.9,17.4   c17.4,0,34.1,4.5,48.7,12.4c1.8,5.2,3.4,10.4,4.9,15.8c-16-1-32.2-1.2-48.5-0.7c-2.4-9.4-5.1-18.6-8.1-27.4   C377.9,17.5,378.9,17.4,379.9,17.4z M359,19.5c0.1,0,0.1,0,0.1,0c2.9,8.3,5.5,17,8,26.3c-16.3,1-32.7,2.8-49.1,5.4   c-1.7-3.1-3.4-6.1-5.2-8.9C325.6,31.2,341.4,23.2,359,19.5z M308.1,70.5c0.8,1.9,1.7,3.8,2.5,5.9c2.6,6.5,4.9,13.3,7,20.4   c1.1,3.6,2.2,7.2,3.2,10.8c-5.4,0.8-10.7,1.8-16,2.8c-2.1,0.4-4.2,0.7-6.3,1.1c-7.2,1.4-14.3,3.1-21.5,4.9c0.1-1.9,0.4-3.8,0.5-5.7   c1.2-12.7,4.6-25,10.2-36.2C294.6,73.1,301.3,71.7,308.1,70.5z M297.1,245.9c24.8,16.2,40.3,36.9,41,43.5l-19.3,22.4   c-7.1-13.1-21.6-27.3-38-38c-13.6-8.9-28.6-16-41.1-19.5c-3.7-1-7.1-1.7-10.2-2.2l13.9-29.1C249.1,222.1,270.4,228.4,297.1,245.9z    M208.9,433.7c-0.5,0.7-2.5,1.6-5.8,1.6c-7.1,0-16.5-3.4-25.2-9c-7.5-4.8-13.6-11-17.1-16.8c-2.7-4.6-2.8-7.6-2.2-8.5   c0.5-0.7,2.5-1.6,5.8-1.6c1,0,2,0.2,3,0.3c6.6,0.7,14.6,3.8,22.1,8.7c8.8,5.7,14.2,11.9,17,16.8C209,429.2,209.6,432.5,208.9,433.7   z M187.1,433.2l-17.7-11.6L152,410.2l53.6,35L187.1,433.2z M224.1,421.4c-4-9.6-12.7-19.6-25-27.7c-10.5-6.9-21.8-11-31.7-11.7   l53.8-112.7c5.1-1.6,25.6,3.2,49.9,19.1c25,16.3,34.9,33.5,34.8,38.2L224.1,421.4z M350.8,274.8c-1.9-3.3-4.2-6.7-7.1-10.4   c-9.2-11.7-22.7-23.8-37-33c-7.2-4.7-34.4-21.8-55.3-25.2l18.3-38.2c2.8,6.3,6,12.3,9.7,18c0.9,1.4,1.9,2.8,2.8,4.2   c22.1,30.8,58.1,50.5,97.7,50.5c0.2,0,0.4,0,0.6,0L350.8,274.8z M400.6,221c-0.1,0-0.1,0-0.2,0c0.1-1.3,0.1-2.6,0.1-4   c0.6-13.9,0.7-28.7,0.4-44.1c0.6,0,1.3,0.1,1.9,0.1c10.1,0.1,20.4,0.8,30.5,1.7c3.4,0.3,6.9,0.5,10.4,1c-0.4,8.7-0.9,17.4-1.5,26.1   c-4,3.1-8.2,5.7-12.5,8.1C420.8,215,411,218.8,400.6,221z M460.9,183.5c0.1-1.7,0.1-3.5,0.2-5.2c1,0.1,2.1,0.4,3.2,0.6   C463.1,180.4,462,182,460.9,183.5z M473.4,162.7c-3.9-0.7-7.8-1.4-11.6-2c0.3-11.9,0.4-23.9,0-35.7c6.8,0.9,13.6,1.9,20.7,3.1   C481.4,140,478.4,151.7,473.4,162.7z" style="" fill="#F78076"></path>
</g>
</svg>